Coordinates
version=1
nRows=19
nColumns=24
inDegrees=yes

Units are S.I. units (second, meters, Newtons, ...)
Angles are in degrees.

endheader
time	pelvis_tilt	pelvis_list	pelvis_rotation	pelvis_tx	pelvis_ty	pelvis_tz	hip_flexion_r	hip_adduction_r	hip_rotation_r	knee_angle_r	ankle_angle_r	subtalar_angle_r	mtp_angle_r	hip_flexion_l	hip_adduction_l	hip_rotation_l	knee_angle_l	ankle_angle_l	subtalar_angle_l	mtp_angle_l	lumbar_extension	lumbar_bending	lumbar_rotation
      4.92000000	     36.98013070	     -1.36043834	     -4.04409057	      1.45412599	      0.63842848	     -0.31892120	    -60.37067778	     -3.96116107	     -7.13191569	    -17.83515612	     16.44692315	     16.57168842	      0.00000000	     -9.99229745	      1.26804023	    -13.13772449	     -9.61750855	      0.77965277	      3.22408271	      0.00000000	    -60.86586909	     -3.83225897	      9.70309664
      4.92500000	     37.20200542	     -0.91381624	     -4.16781195	      1.46178955	      0.63863766	     -0.31974730	    -60.04857549	     -4.59968030	     -7.32339791	    -20.02482859	     14.80399723	     16.28361022	      0.00000000	     -9.86154359	      1.79787639	    -12.89731323	    -11.55482952	      0.77329409	      2.30219292	      0.00000000	    -61.01073976	     -4.21996146	      9.28151410
      4.93000000	     37.33848494	     -0.51342362	     -4.18684946	      1.46943182	      0.63885995	     -0.32069191	    -59.54609408	     -5.12503868	     -7.56765739	    -22.30073820	     13.00756932	     15.93662287	      0.00000000	     -9.60303248	      2.24811800	    -12.60402733	    -13.61481555	      0.91373998	      1.50352859	      0.00000000	    -61.07544564	     -4.46859207	      8.82519674
      4.93500000	     37.53827516	     -0.10191107	     -4.35352850	      1.47715685	      0.63929309	     -0.32151263	    -59.01303547	     -5.80089040	     -7.81003161	    -24.65402804	     11.02885151	     15.44807040	      0.00000000	     -9.56444154	      2.74897512	    -12.61606198	    -15.45048656	      1.02486332	      0.97412913	      0.00000000	    -61.18092564	     -4.83104614	      8.48547152
      4.94000000	     37.60269646	      0.19046228	     -4.35188756	      1.48473403	      0.63968942	     -0.32252734	    -58.20734894	     -6.25825721	     -7.98031834	    -27.12305712	      8.95536033	     14.82043078	      0.00000000	     -9.33863402	      3.08545082	    -12.41949335	    -17.38788111	      1.38048986	      0.47302801	      0.00000000	    -61.18457303	     -4.95406459	      8.14531298
      4.94500000	     37.75339594	      0.56616549	     -4.47334976	      1.49242438	      0.64025335	     -0.32336519	    -57.44502159	     -6.88056103	     -8.19678670	    -29.58518568	      6.78621584	     14.11269971	      0.00000000	     -9.36015429	      3.54280800	    -12.41823482	    -19.06640967	      1.73986423	      0.16850302	      0.00000000	    -61.23306516	     -5.26584191	      7.83932885
      4.95000000	     37.88805151	      0.91476950	     -4.59234714	      1.50005829	      0.64091516	     -0.32428247	    -56.57334688	     -7.51174579	     -8.45243175	    -32.08659518	      4.57148161	     13.27487280	      0.00000000	     -9.46117508	      3.98759949	    -12.43701706	    -20.56740026	      2.18093092	     -0.01813854	      0.00000000	    -61.26834020	     -5.51176793	      7.56792847
      4.95500000	     37.91091162	      1.12780919	     -4.65551209	      1.50752268	      0.64159234	     -0.32527651	    -55.45307059	     -8.00753792	     -8.57709458	    -34.65510218	      2.39953308	     12.24888920	      0.00000000	     -9.48563534	      4.26978777	    -12.46474963	    -22.00430121	      2.87345987	     -0.07837336	      0.00000000	    -61.22404631	     -5.59462582	      7.34852962
      4.96000000	     37.93135592	      1.39458569	     -4.74084755	      1.51497839	      0.64237553	     -0.32619750	    -54.28403104	     -8.56328146	     -8.74934645	    -37.18785690	      0.29052455	     11.19200641	      0.00000000	     -9.62607806	      4.61747831	    -12.54630543	    -23.20759578	      3.55430761	     -0.05733934	      0.00000000	    -61.16975002	     -5.75549872	      7.14114566
      4.96500000	     37.94715822	      1.65943133	     -4.85405779	      1.52235851	      0.64324719	     -0.32713467	    -53.04369568	     -9.15027389	     -8.89621695	    -39.69945397	     -1.67426409	     10.01847442	      0.00000000	     -9.87115086	      4.98985114	    -12.63446933	    -24.19510051	      4.30127028	      0.04322273	      0.00000000	    -61.11128131	     -5.91319698	      6.93473321
      4.97000000	     37.94535995	      1.91942115	     -4.97880464	      1.52966490	      0.64419437	     -0.32805128	    -51.73477022	     -9.74009134	     -9.00590082	    -42.16402758	     -3.42278145	      8.78660794	      0.00000000	    -10.19951993	      5.37176784	    -12.72688029	    -24.97733971	      5.10215956	      0.20176259	      0.00000000	    -61.04131886	     -6.07008122	      6.72311234
      4.97500000	     37.90986631	      2.16720438	     -5.10648575	      1.53687277	      0.64522268	     -0.32895965	    -50.33537393	    -10.31610345	     -9.06111347	    -44.57985202	     -4.93251415	      7.55371182	      0.00000000	    -10.58570424	      5.75314736	    -12.81279065	    -25.56434721	      5.90328083	      0.41978910	      0.00000000	    -60.94745991	     -6.20941893	      6.51593653
      4.98000000	     37.87906806	      2.41990636	     -5.22004265	      1.54400489	      0.64631082	     -0.32986172	    -48.92364890	    -10.87179762	     -9.10596753	    -46.90488607	     -6.10460206	      6.28848809	      0.00000000	    -11.06674195	      6.15331901	    -12.87544993	    -25.96448264	      6.76112554	      0.65741300	      0.00000000	    -60.86424957	     -6.33970019	      6.27935258
      4.98500000	     37.80558034	      2.64521727	     -5.32263328	      1.55102427	      0.64747825	     -0.33076292	    -47.42196980	    -11.38183452	     -9.08195425	    -49.15850844	     -6.98426999	      5.10725726	      0.00000000	    -11.58035071	      6.53146997	    -12.91989242	    -26.19485716	      7.57869230	      0.93283626	      0.00000000	    -60.75560965	     -6.43280823	      6.04502133
      4.99000000	     37.81746051	      2.96117728	     -5.36633990	      1.55799082	      0.64875383	     -0.33165340	    -46.05791422	    -11.90433078	     -9.16989444	    -51.25310401	     -7.51807511	      4.03243301	      0.00000000	    -12.27038450	      7.01505438	    -12.85517182	    -26.22544409	      8.26148949	      1.16150909	      0.00000000	    -60.74335598	     -6.54678948	      5.61297766
      4.99500000	     37.62388978	      3.04533548	     -5.43232071	      1.56477132	      0.65002390	     -0.33254404	    -44.33812564	    -12.21515331	     -8.94134262	    -53.34474720	     -7.74733300	      2.98513861	      0.00000000	    -12.77890884	      7.24339931	    -12.87033628	    -26.20299125	      9.12463303	      1.52608510	      0.00000000	    -60.54602982	     -6.49944486	      5.48617136
      5.00000000	     37.49776471	      3.19450686	     -5.42955686	      1.57144251	      0.65138188	     -0.33341891	    -42.73030899	    -12.49857626	     -8.80406296	    -55.27962051	     -7.59761898	      2.09769341	      0.00000000	    -13.41072247	      7.53982410	    -12.76311912	    -26.04012909	      9.80160555	      1.80736671	      0.00000000	    -60.44928598	     -6.45289006	      5.18512558
      5.00500000	     37.56110015	      3.39539178	     -5.32794071	      1.57814969	      0.65289968	     -0.33433738	    -41.44508453	    -12.73998049	     -8.82286672	    -56.94870299	     -7.15532179	      1.35139664	      0.00000000	    -14.34291626	      7.90173302	    -12.48770441	    -25.69474892	     10.40631643	      2.00093504	      0.00000000	    -60.52306135	     -6.35195454	      4.69372275
      5.01000000	     37.36484686	      3.52832942	     -5.21887896	      1.58468179	      0.65436479	     -0.33510400	    -39.76620920	    -12.86504814	     -8.70647752	    -58.62321698	     -6.61831312	      0.62668139	      0.00000000	    -14.98589855	      8.12603175	    -12.29020672	    -25.34417787	     10.95332746	      2.46067049	      0.00000000	    -60.38735593	     -6.25452285	      4.34165019
